# xmcd
#
# Track frame offsets:
#	150
#	12031
#	25087
#	37097
#	49814
#	62338
#	75825
#	89658
#	104187
#	117250
#	131642
#	145738
#
# Disc length: 2115 seconds
#
# Revision: 2
# Processed by: cddbd v1.5.2PL0 Copyright (c) Steve Scherf et al.
# Submitted via: audiograbber 1.83.01
#
DISCID=9a08410c
DTITLE=Stevie Wonder - I Was Made To Love Her
DYEAR=2011
DGENRE=Motown
TTITLE0=I Was Made To Love Her (1967)
TTITLE1=My Cherie Amour (1969)
TTITLE2=Signed, Sealed, Delivered (I'm Yours) (1970)
TTITLE3=For Once In My Life (1968)
TTITLE4=Shoo-Be-Doo-Be-Doo-Da-Day (1968)
TTITLE5=If You Really Love Me (1971)
TTITLE6=Yester-Me, Yester-You, Yesterday (1969)
TTITLE7=Heaven Help Us All (1970)
TTITLE8=Uptight (Everything's Alright) (1965)
TTITLE9=Fingertips, Part 2 (Live) (1963)
TTITLE10=Blowin' In The Wind (1966)
TTITLE11=A Place In The Sun (1966)
EXTD=Track dates provided.
EXTT0=
EXTT1=
EXTT2=
EXTT3=
EXTT4=
EXTT5=
EXTT6=
EXTT7=
EXTT8=
EXTT9=
EXTT10=
EXTT11=
PLAYORDER=
